{"title":"Ekkees Toppon Ki Salaami (2014) Untouched 720P WEB HD - AVC - AA","uid":11943722,"size":2106999655,"categoryP":"video","categoryS":"other","magnet":"?xt=urn:btih:282bd884c8ebcc5ef485d71ad01d158230161de9&amp;dn=Ekkees+Toppon+Ki+Salaami+%282014%29+Untouched+720P+WEB+HD+-+AVC+-+AA&amp;tr=udp%3A%2F%2Ftracker.openbittorrent.com%3A80&amp;tr=udp%3A%2F%2Fopen.demonii.com%3A1337&amp;tr=udp%3A%2F%2Ftracker.coppersurfer.tk%3A6969&amp;tr=udp%3A%2F%2Fexodus.desync.com%3A6969","seeders":0,"leechers":1,"uploader":"SS132203","files":3,"time":1432021028,"description":"Ekkees Toppon Ki Salaami (2014) Untouched 720P WEB HD - AVC - AAC - Team IcTv Exclusive\n &lt;a href=&quot;\nhttp://imgsparrow.co/image/47&quot; rel=&quot;nofollow&quot; target=&quot;_NEW&quot;&gt;\nhttp://imgsparrow.co/image/47&lt;/a&gt;\n &lt;a href=&quot;\nhttp://imgsparrow.co/image/TT&quot; rel=&quot;nofollow&quot; target=&quot;_NEW&quot;&gt;\nhttp://imgsparrow.co/image/TT&lt;/a&gt;\n &lt;a href=&quot;\nhttp://imgsparrow.co/image/9b&quot; rel=&quot;nofollow&quot; target=&quot;_NEW&quot;&gt;\nhttp://imgsparrow.co/image/9b&lt;/a&gt;\n\nAll Credit Goes To Intellect Clever &amp; IcTv\nSample Within Torrent\n\nMovie Info\nYear : 2014\nBanner : Nautanki Films &amp; Shikhar Films\nCast : Anupam Kher Neha Dhupia Divyendu Sharma Manu Rishi Chadha\nVideo: AVC\nAudio : AAC\nGenre : Drama,\nSubtitles : None\nResolution : 1280 x 720\nRuntime : 2hr 14min xx\nSource : Team IcTv\n\nFormat                      : MPEG-4\nFormat profile              : Base Media\nCodec ID                    : isom\nFile size                   : 1.93 GiB\nDuration                    : 2h 13mn\nOverall bit rate mode       : Variable\nOverall bit rate            : 2 066 Kbps\nWriting application         : Lavf55.32.101\n\nVideo\nID                          : 1\nFormat                      : AVC\nFormat/Info                 : Advanced Video Codec\nFormat profile              : &lt;a class=&quot;__cf_email__&quot; href=&quot;/cdn-cgi/l/email-protection&quot; data-cfemail=&quot;99d4f8f0f7d9d5aab7a8&quot;&gt;[email&amp;#160;protected]&lt;/a&gt;&lt;script data-cfhash='f9e31' type=&quot;text/javascript&quot;&gt;\n/* &lt;![CDATA[ */!function(){try{var t=&quot;currentScript&quot;in document?document.currentScript:function(){for(var t=document.getElementsByTagName(&quot;script&quot;),e=t.length;e--;)if(t[e].getAttribute(&quot;data-cfhash&quot;))return t[e]}();if(t&amp;&amp;t.previousSibling){var e,r,n,i,c=t.previousSibling,a=c.getAttribute(&quot;data-cfemail&quot;);if(a){for(e=&quot;&quot;,r=parseInt(a.substr(0,2),16),n=2;a.length-n;n+=2)i=parseInt(a.substr(n,2),16)^r,e+=String.fromCharCode(i);e=document.createTextNode(e),c.parentNode.replaceChild(e,c)}t.parentNode.removeChild(t);}}catch(u){}}()/* ]]&gt; */&lt;/script&gt;\nFormat settings, CABAC      : Yes\nFormat settings, ReFrames   : 1 frame\nFormat settings, GOP        : M=1, N=25\nCodec ID                    : avc1\nCodec ID/Info               : Advanced Video Coding\nDuration                    : 2h 13mn\nBit rate mode               : Constant\nBit rate                    : 2 000 Kbps\nWidth                       : 1 280 pixels\nHeight                      : 720 pixels\nDisplay aspect ratio        : 16:9\nFrame rate mode             : Constant\nFrame rate                  : 25.000 fps\nColor space                 : YUV\nChroma subsampling          : 4:2:0\nBit depth                   : 8 bits\nScan type                   : Progressive\nBits/(Pixel*Frame)          : 0.087\nStream size                 : 1.87 GiB (97%)\n\nAudio\nID                          : 2\nFormat                      : AAC\nFormat/Info                 : Advanced Audio Codec\nFormat profile              : LC\nCodec ID                    : 40\nDuration                    : 2h 13mn\nBit rate mode               : Variable\nBit rate                    : 61.4 Kbps\nMaximum bit rate            : 63.8 Kbps\nChannel(s)                  : 2 channels\nChannel positions           : Front: L R\nSampling rate               : 48.0 KHz\nCompression mode            : Lossy\nStream size                 : 58.8 MiB (3%)\n\nScreens : - \n &lt;a href=&quot;\nhttp://imgsparrow.co/image/TL&quot; rel=&quot;nofollow&quot; target=&quot;_NEW&quot;&gt;\nhttp://imgsparrow.co/image/TL&lt;/a&gt; &lt;a href=&quot;\nhttp://imgsparrow.co/image/TN&quot; rel=&quot;nofollow&quot; target=&quot;_NEW&quot;&gt;\nhttp://imgsparrow.co/image/TN&lt;/a&gt; &lt;a href=&quot;\nhttp://imgsparrow.co/image/Tt&quot; rel=&quot;nofollow&quot; target=&quot;_NEW&quot;&gt;\nhttp://imgsparrow.co/image/Tt&lt;/a&gt; &lt;a href=&quot;\nhttp://imgsparrow.co/image/TE&quot; rel=&quot;nofollow&quot; target=&quot;_NEW&quot;&gt;\nhttp://imgsparrow.co/image/TE&lt;/a&gt; &lt;a href=&quot;\nhttp://imgsparrow.co/image/TJ&quot; rel=&quot;nofollow&quot; target=&quot;_NEW&quot;&gt;\nhttp://imgsparrow.co/image/TJ&lt;/a&gt; &lt;a href=&quot;\nhttp://imgsparrow.co/image/TU&quot; rel=&quot;nofollow&quot; target=&quot;_NEW&quot;&gt;\nhttp://imgsparrow.co/image/TU&lt;/a&gt; &lt;a href=&quot;\nhttp://imgsparrow.co/image/Tu&quot; rel=&quot;nofollow&quot; target=&quot;_NEW&quot;&gt;\nhttp://imgsparrow.co/image/Tu&lt;/a&gt; &lt;a href=&quot;\nhttp://imgsparrow.co/image/Tw&quot; rel=&quot;nofollow&quot; target=&quot;_NEW&quot;&gt;\nhttp://imgsparrow.co/image/Tw&lt;/a&gt; &lt;a href=&quot;\nhttp://imgsparrow.co/image/T4&quot; rel=&quot;nofollow&quot; target=&quot;_NEW&quot;&gt;\nhttp://imgsparrow.co/image/T4&lt;/a&gt; &lt;a href=&quot;\nhttp://imgsparrow.co/image/TH&quot; rel=&quot;nofollow&quot; target=&quot;_NEW&quot;&gt;\nhttp://imgsparrow.co/image/TH&lt;/a&gt;\n\n=http://imgsparrow.co/image/N2","torrent":{"xt":"urn:btih:282bd884c8ebcc5ef485d71ad01d158230161de9","amp;dn":"Ekkees+Toppon+Ki+Salaami+%282014%29+Untouched+720P+WEB+HD+-+AVC+-+AA","amp;tr":["udp%3A%2F%2Ftracker.openbittorrent.com%3A80","udp%3A%2F%2Fopen.demonii.com%3A1337","udp%3A%2F%2Ftracker.coppersurfer.tk%3A6969","udp%3A%2F%2Fexodus.desync.com%3A6969"],"infoHash":"282bd884c8ebcc5ef485d71ad01d158230161de9","infoHashBuffer":{"type":"Buffer","data":[40,43,216,132,200,235,204,94,244,133,215,26,208,29,21,130,48,22,29,233]},"announce":[],"urlList":[]}}